{
  "accessors": [
    {
      "bufferView": 1,
      "componentType": 5126,
      "count": 419,
      "max": [
        1.0000004768371582,
        1.301339864730835,
        1.0
      ],
      "min": [
        -1.0000004768371582,
        -1.986202597618103,
        -1.036899447441101
      ],
      "type": "VEC3"
    },
    {
      "bufferView": 1,
      "byteOffset": 5028,
      "componentType": 5126,
      "count": 419,
      "max": [
        1.0,
        1.0,
        1.0
      ],
      "min": [
        -1.0,
        -1.0,
        -1.0
      ],
      "type": "VEC3"
    },
    {
      "bufferView": 0,
      "componentType": 5125,
      "count": 1188,
      "type": "SCALAR"
    },
    {
      "bufferView": 1,
      "byteOffset": 10056,
      "componentType": 5126,
      "count": 9,
      "max": [
        0.9480562806129456,
        0.8280087113380432,
        0.917924165725708
      ],
      "min": [
        -0.9480562806129456,
        0.8280087113380432,
        -0.917924165725708
      ],
      "type": "VEC3"
    },
    {
      "bufferView": 1,
      "byteOffset": 10164,
      "componentType": 5126,
      "count": 9,
      "max": [
        0.0,
        1.0,
        0.0
      ],
      "min": [
        0.0,
        1.0,
        0.0
      ],
      "type": "VEC3"
    },
    {
      "bufferView": 0,
      "byteOffset": 4752,
      "componentType": 5125,
      "count": 24,
      "type": "SCALAR"
    }
  ],
  "asset": {
    "extras": {
      "author": "hate94neu (https://sketchfab.com/hate94neu)",
      "license": "CC-BY-4.0 (http://creativecommons.org/licenses/by/4.0/)",
      "source": "https://sketchfab.com/3d-models/smart-tv-minimal-model-low-poly-7ddb3edf12924c72912f92d1a71b8300",
      "title": "Smart Tv Minimal Model - Low Poly"
    },
    "generator": "Sketchfab-12.68.0",
    "version": "2.0"
  },
  "bufferViews": [
    {
      "buffer": 0,
      "byteLength": 4848,
      "name": "floatBufferViews",
      "target": 34963
    },
    {
      "buffer": 0,
      "byteLength": 10272,
      "byteOffset": 4848,
      "byteStride": 12,
      "name": "floatBufferViews",
      "target": 34962
    }
  ],
  "buffers": [
    {
      "byteLength": 15120,
      "uri": "scene.bin"
    }
  ],
  "materials": [
    {
      "doubleSided": true,
      "name": "Tv_Negro",
      "pbrMetallicRoughness": {
        "baseColorFactor": [
          0.0,
          0.0,
          0.0,
          1.0
        ],
        "metallicFactor": 0.0,
        "roughnessFactor": 0.14255106440879017
      }
    },
    {
      "doubleSided": true,
      "name": "Tv_Pantalla",
      "pbrMetallicRoughness": {
        "baseColorFactor": [
          0.0,
          0.0,
          0.0,
          1.0
        ],
        "metallicFactor": 0.0,
        "roughnessFactor": 0.15947246043310292
      }
    }
  ],
  "meshes": [
    {
      "name": "Tv Led 42_Tv Negro_0",
      "primitives": [
        {
          "attributes": {
            "NORMAL": 1,
            "POSITION": 0
          },
          "indices": 2,
          "material": 0,
          "mode": 4
        }
      ]
    },
    {
      "name": "Tv Led 42_Tv Pantalla_0",
      "primitives": [
        {
          "attributes": {
            "NORMAL": 4,
            "POSITION": 3
          },
          "indices": 5,
          "material": 1,
          "mode": 4
        }
      ]
    }
  ],
  "nodes": [
    {
      "children": [
        1
      ],
      "matrix": [
        1.0,
        0.0,
        0.0,
        0.0,
        0.0,
        2.220446049250313e-16,
        -1.0,
        0.0,
        0.0,
        1.0,
        2.220446049250313e-16,
        0.0,
        0.0,
        0.0,
        0.0,
        1.0
      ],
      "name": "Sketchfab_model"
    },
    {
      "children": [
        2
      ],
      "matrix": [
        1.0,
        0.0,
        0.0,
        0.0,
        0.0,
        0.0,
        1.0,
        0.0,
        0.0,
        -1.0,
        0.0,
        0.0,
        0.0,
        0.0,
        0.0,
        1.0
      ],
      "name": "10bc320589514ef3b38346ad70b4736c.fbx"
    },
    {
      "children": [
        3
      ],
      "name": "RootNode"
    },
    {
      "children": [
        4,
        5
      ],
      "matrix": [
        48.59000015258789,
        0.0,
        0.0,
        0.0,
        0.0,
        -0.25963922170733506,
        -2.541109460507477,
        0.0,
        0.0,
        28.6956013893921,
        -2.931988458961453,
        0.0,
        0.0,
        120.0621109008789,
        0.0,
        1.0
      ],
      "name": "Tv Led 42"
    },
    {
      "mesh": 0,
      "name": "Tv Led 42_Tv Negro_0"
    },
    {
      "mesh": 1,
      "name": "Tv Led 42_Tv Pantalla_0"
    }
  ],
  "scene": 0,
  "scenes": [
    {
      "name": "Sketchfab_Scene",
      "nodes": [
        0
      ]
    }
  ]
}
