<svg xmlns="http://www.w3.org/2000/svg" xmlns:xlink="http://www.w3.org/1999/xlink" version="1.1" x="0px" y="0px" viewBox="0 0 70 87.5" style="enable-background:new 0 0 70 70;" xml:space="preserve"><style type="text/css">
	.st0{fill:none;stroke:#000000;stroke-width:2;stroke-linecap:round;stroke-linejoin:round;stroke-miterlimit:10;}
</style><g><g><g><path d="M46.4609375,66.9936523H29.6357422c-5.2871094,0-9.5878906-4.9804688-9.5878906-11.1025391V42.9936523     c0-0.5522461,0.4472656-1,1-1s1,0.4477539,1,1v12.8974609c0,5.019043,3.4042969,9.1025391,7.5878906,9.1025391h16.8251953     c4.1835938,0,7.5869141-4.0834961,7.5869141-9.1025391V42.9936523c0-0.5522461,0.4472656-1,1-1s1,0.4477539,1,1v12.8974609     C56.0478516,62.0131836,51.7470703,66.9936523,46.4609375,66.9936523z"/></g><g><path d="M48.2480469,44.9936523c-0.5527344,0-1-0.4477539-1-1v-2c0-2.7568359,1.9736328-5,4.4003906-5     c2.4257813,0,4.3994141,2.2431641,4.3994141,5v1c0,0.5522461-0.4472656,1-1,1s-1-0.4477539-1-1v-1     c0-1.6542969-1.0761719-3-2.3994141-3s-2.4003906,1.3457031-2.4003906,3v2     C49.2480469,44.5458984,48.8007813,44.9936523,48.2480469,44.9936523z"/></g><g><path d="M48.2480469,44.9936523c-0.5527344,0-1-0.4477539-1-1v-7c0-1.6542969-1.0761719-3-2.3994141-3     s-2.4003906,1.3457031-2.4003906,3v1c0,0.5522461-0.4472656,1-1,1s-1-0.4477539-1-1v-1c0-2.7568359,1.9736328-5,4.4003906-5     c2.4257813,0,4.3994141,2.2431641,4.3994141,5v7C49.2480469,44.5458984,48.8007813,44.9936523,48.2480469,44.9936523z"/></g><g><path d="M41.4482422,38.9936523c-0.5527344,0-1-0.4477539-1-1v-7c0-1.6542969-1.0771484-3-2.4003906-3     s-2.3994141,1.3457031-2.3994141,3v6c0,0.5522461-0.4472656,1-1,1s-1-0.4477539-1-1v-6c0-2.7568359,1.9736328-5,4.3994141-5     c2.4267578,0,4.4003906,2.2431641,4.4003906,5v7C42.4482422,38.5458984,42.0009766,38.9936523,41.4482422,38.9936523z"/></g><g><path d="M27.8486328,43.9936523c-0.5527344,0-1-0.4477539-1-1v-23c0-2.7568359,1.9736328-5,4.3994141-5     c2.4267578,0,4.4003906,2.2431641,4.4003906,5v17c0,0.5522461-0.4472656,1-1,1s-1-0.4477539-1-1v-17     c0-1.6542969-1.0771484-3-2.4003906-3s-2.3994141,1.3457031-2.3994141,3v23     C28.8486328,43.5458984,28.4013672,43.9936523,27.8486328,43.9936523z"/></g><g><path d="M27.8486328,43.9936523c-0.5527344,0-1-0.4477539-1-1v-6c0-1.6542969-1.0771484-3-2.4003906-3     s-2.4003906,1.3457031-2.4003906,3v6c0,0.5522461-0.4472656,1-1,1s-1-0.4477539-1-1v-6c0-2.7568359,1.9736328-5,4.4003906-5     s4.4003906,2.2431641,4.4003906,5v6C28.8486328,43.5458984,28.4013672,43.9936523,27.8486328,43.9936523z"/></g></g><g><path d="M35.0478516,9.0063477c-0.2558594,0-0.5117188-0.0976563-0.7070313-0.2929688l-3.2929688-3.2929688l-3.2929688,3.2929688    c-0.390625,0.390625-1.0234375,0.390625-1.4140625,0s-0.390625-1.0234375,0-1.4140625l4-4    c0.390625-0.390625,1.0234375-0.390625,1.4140625,0l4,4c0.390625,0.390625,0.390625,1.0234375,0,1.4140625    C35.5595703,8.9086914,35.3037109,9.0063477,35.0478516,9.0063477z"/></g><g><path d="M31.0478516,12.980957c-0.5527344,0-1-0.4477539-1-1V4.53125c0-0.5522461,0.4472656-1,1-1s1,0.4477539,1,1v7.449707    C32.0478516,12.5332031,31.6005859,12.980957,31.0478516,12.980957z"/></g><g><path d="M43.1445313,24.980957c-0.2558594,0-0.5117188-0.0976563-0.7070313-0.2929688    c-0.390625-0.390625-0.390625-1.0234375,0-1.4140625l3.2929688-3.2929688L42.4375,16.6879883    c-0.390625-0.390625-0.390625-1.0234375,0-1.4140625s1.0234375-0.390625,1.4140625,0l4,4    c0.390625,0.390625,0.390625,1.0234375,0,1.4140625l-4,4C43.65625,24.8833008,43.4003906,24.980957,43.1445313,24.980957z"/></g><g><path d="M46.6191406,20.980957h-7.4492188c-0.5527344,0-1-0.4477539-1-1s0.4472656-1,1-1h7.4492188c0.5527344,0,1,0.4477539,1,1    S47.171875,20.980957,46.6191406,20.980957z"/></g><g><path d="M18.9521484,24.980957c-0.2558594,0-0.5117188-0.0976563-0.7070313-0.2929688l-4-4    c-0.390625-0.390625-0.390625-1.0234375,0-1.4140625l4-4c0.390625-0.390625,1.0234375-0.390625,1.4140625,0    s0.390625,1.0234375,0,1.4140625l-3.2929688,3.2929688l3.2929688,3.2929688c0.390625,0.390625,0.390625,1.0234375,0,1.4140625    C19.4638672,24.8833008,19.2080078,24.980957,18.9521484,24.980957z"/></g><g><path d="M22.9267578,20.980957h-7.4501953c-0.5527344,0-1-0.4477539-1-1s0.4472656-1,1-1h7.4501953c0.5527344,0,1,0.4477539,1,1    S23.4794922,20.980957,22.9267578,20.980957z"/></g></g></svg>