{
  "accessors": [
    {
      "bufferView": 2,
      "componentType": 5126,
      "count": 352,
      "max": [
        15.720767974853516,
        1.0,
        3.66917085647583
      ],
      "min": [
        -15.720767974853516,
        -1.0,
        -3.66917085647583
      ],
      "type": "VEC3"
    },
    {
      "bufferView": 2,
      "byteOffset": 4224,
      "componentType": 5126,
      "count": 352,
      "max": [
        1.0,
        1.0,
        1.0
      ],
      "min": [
        -1.0,
        -1.0,
        -1.0
      ],
      "type": "VEC3"
    },
    {
      "bufferView": 1,
      "componentType": 5126,
      "count": 352,
      "max": [
        0.0,
        0.0
      ],
      "min": [
        0.0,
        0.0
      ],
      "type": "VEC2"
    },
    {
      "bufferView": 0,
      "componentType": 5125,
      "count": 1152,
      "type": "SCALAR"
    },
    {
      "bufferView": 2,
      "byteOffset": 8448,
      "componentType": 5126,
      "count": 696,
      "max": [
        35.709285736083984,
        13.270577430725098,
        5.572042465209961
      ],
      "min": [
        -36.20717239379883,
        -13.270577430725098,
        -10.403449058532715
      ],
      "type": "VEC3"
    },
    {
      "bufferView": 2,
      "byteOffset": 16800,
      "componentType": 5126,
      "count": 696,
      "max": [
        1.0,
        1.0,
        1.0
      ],
      "min": [
        -1.0,
        -1.0,
        -1.0
      ],
      "type": "VEC3"
    },
    {
      "bufferView": 1,
      "byteOffset": 2816,
      "componentType": 5126,
      "count": 696,
      "max": [
        0.8750000596046448,
        1.0
      ],
      "min": [
        0.125,
        0.0
      ],
      "type": "VEC2"
    },
    {
      "bufferView": 0,
      "byteOffset": 4608,
      "componentType": 5125,
      "count": 960,
      "type": "SCALAR"
    }
  ],
  "asset": {
    "extras": {
      "author": "LightSwitch (https://sketchfab.com/edwardlewis450)",
      "license": "CC-BY-4.0 (http://creativecommons.org/licenses/by/4.0/)",
      "source": "https://sketchfab.com/3d-models/tv-stand-55612f6c24dd4b189993ef80f00791c9",
      "title": "TV Stand"
    },
    "generator": "Sketchfab-12.68.0",
    "version": "2.0"
  },
  "bufferViews": [
    {
      "buffer": 0,
      "byteLength": 8448,
      "name": "floatBufferViews",
      "target": 34963
    },
    {
      "buffer": 0,
      "byteLength": 8384,
      "byteOffset": 8448,
      "byteStride": 8,
      "name": "floatBufferViews",
      "target": 34962
    },
    {
      "buffer": 0,
      "byteLength": 25152,
      "byteOffset": 16832,
      "byteStride": 12,
      "name": "floatBufferViews",
      "target": 34962
    }
  ],
  "buffers": [
    {
      "byteLength": 41984,
      "uri": "scene.bin"
    }
  ],
  "materials": [
    {
      "doubleSided": true,
      "name": "tvstandmetal",
      "pbrMetallicRoughness": {
        "roughnessFactor": 0.2449489742783178
      }
    },
    {
      "doubleSided": true,
      "name": "tvstand",
      "pbrMetallicRoughness": {
        "baseColorFactor": [
          0.8,
          0.8,
          0.8,
          1.0
        ],
        "metallicFactor": 0.0,
        "roughnessFactor": 0.16000000000000003
      }
    }
  ],
  "meshes": [
    {
      "name": "Circle.006_tvstandmetal_0",
      "primitives": [
        {
          "attributes": {
            "NORMAL": 1,
            "POSITION": 0,
            "TEXCOORD_0": 2
          },
          "indices": 3,
          "material": 0,
          "mode": 4
        }
      ]
    },
    {
      "name": "Circle.006_tvstand_0",
      "primitives": [
        {
          "attributes": {
            "NORMAL": 5,
            "POSITION": 4,
            "TEXCOORD_0": 6
          },
          "indices": 7,
          "material": 1,
          "mode": 4
        }
      ]
    }
  ],
  "nodes": [
    {
      "children": [
        1
      ],
      "matrix": [
        1.0,
        0.0,
        0.0,
        0.0,
        0.0,
        2.220446049250313e-16,
        -1.0,
        0.0,
        0.0,
        1.0,
        2.220446049250313e-16,
        0.0,
        0.0,
        0.0,
        0.0,
        1.0
      ],
      "name": "Sketchfab_model"
    },
    {
      "children": [
        2
      ],
      "matrix": [
        1.0,
        0.0,
        0.0,
        0.0,
        0.0,
        0.0,
        1.0,
        0.0,
        0.0,
        -1.0,
        0.0,
        0.0,
        0.0,
        0.0,
        0.0,
        1.0
      ],
      "name": "c30f25e6d4324d38953c2271a5341bd7.fbx"
    },
    {
      "children": [
        3
      ],
      "name": "RootNode"
    },
    {
      "children": [
        4,
        5
      ],
      "matrix": [
        4.0348264589201645e-07,
        -1.1503317552133218e-16,
        -2.0722534656524267,
        0.0,
        -2.072253465652425,
        -9.058107954673489e-08,
        -4.034826464671823e-07,
        0.0,
        -9.058107931666854e-08,
        2.0722534656524645,
        -1.8405308083413148e-14,
        0.0,
        1.2420891523361206,
        21.641632080078125,
        -4.955101013183594,
        1.0
      ],
      "name": "Circle.006"
    },
    {
      "mesh": 0,
      "name": "Circle.006_tvstandmetal_0"
    },
    {
      "mesh": 1,
      "name": "Circle.006_tvstand_0"
    }
  ],
  "scene": 0,
  "scenes": [
    {
      "name": "Sketchfab_Scene",
      "nodes": [
        0
      ]
    }
  ]
}
