{
  "accessors": [
    {
      "bufferView": 2,
      "componentType": 5126,
      "count": 5862,
      "max": [
        1.0,
        5.195724010467529,
        1.0
      ],
      "min": [
        -1.0,
        -7.866603374481201,
        -1.2809479236602783
      ],
      "type": "VEC3"
    },
    {
      "bufferView": 2,
      "byteOffset": 70344,
      "componentType": 5126,
      "count": 5862,
      "max": [
        1.0,
        1.0,
        1.0
      ],
      "min": [
        -1.0,
        -1.0,
        -1.0
      ],
      "type": "VEC3"
    },
    {
      "bufferView": 1,
      "componentType": 5126,
      "count": 5862,
      "max": [
        0.875,
        1.0000001192092896
      ],
      "min": [
        0.125,
        0.0
      ],
      "type": "VEC2"
    },
    {
      "bufferView": 0,
      "componentType": 5125,
      "count": 11772,
      "type": "SCALAR"
    },
    {
      "bufferView": 2,
      "byteOffset": 140688,
      "componentType": 5126,
      "count": 4,
      "max": [
        0.9823927879333496,
        -0.5673877596855164,
        0.965965747833252
      ],
      "min": [
        -0.9823927879333496,
        -0.5673877596855164,
        -0.965965747833252
      ],
      "type": "VEC3"
    },
    {
      "bufferView": 2,
      "byteOffset": 140736,
      "componentType": 5126,
      "count": 4,
      "max": [
        0.0,
        -1.0,
        0.0
      ],
      "min": [
        0.0,
        -1.0,
        0.0
      ],
      "type": "VEC3"
    },
    {
      "bufferView": 1,
      "byteOffset": 46896,
      "componentType": 5126,
      "count": 4,
      "max": [
        0.625,
        0.5
      ],
      "min": [
        0.375,
        0.25
      ],
      "type": "VEC2"
    },
    {
      "bufferView": 0,
      "byteOffset": 47088,
      "componentType": 5125,
      "count": 6,
      "type": "SCALAR"
    },
    {
      "bufferView": 2,
      "byteOffset": 140784,
      "componentType": 5126,
      "count": 9913,
      "max": [
        0.045639678835868835,
        -1.0108635425567627,
        -0.967782199382782
      ],
      "min": [
        -0.04036441072821617,
        -1.0306282043457031,
        -0.996769905090332
      ],
      "type": "VEC3"
    },
    {
      "bufferView": 2,
      "byteOffset": 259740,
      "componentType": 5126,
      "count": 9913,
      "max": [
        1.0,
        3.0048927328607533e-06,
        1.0
      ],
      "min": [
        -1.0,
        -1.0,
        -1.0
      ],
      "type": "VEC3"
    },
    {
      "bufferView": 1,
      "byteOffset": 46928,
      "componentType": 5126,
      "count": 9913,
      "max": [
        0.0,
        0.0
      ],
      "min": [
        0.0,
        0.0
      ],
      "type": "VEC2"
    },
    {
      "bufferView": 0,
      "byteOffset": 47112,
      "componentType": 5125,
      "count": 22695,
      "type": "SCALAR"
    },
    {
      "bufferView": 2,
      "byteOffset": 378696,
      "componentType": 5126,
      "count": 14222,
      "max": [
        2.2044384479522705,
        0.43033304810523987,
        0.009998548775911331
      ],
      "min": [
        -1.9495787620544434,
        -0.26972314715385437,
        -0.009998809546232224
      ],
      "type": "VEC3"
    },
    {
      "bufferView": 2,
      "byteOffset": 549360,
      "componentType": 5126,
      "count": 14222,
      "max": [
        1.0,
        1.0,
        1.0
      ],
      "min": [
        -1.0,
        -1.0,
        -1.0
      ],
      "type": "VEC3"
    },
    {
      "bufferView": 0,
      "byteOffset": 137892,
      "componentType": 5125,
      "count": 37584,
      "type": "SCALAR"
    }
  ],
  "asset": {
    "extras": {
      "author": "Irfansaeedahmad (https://sketchfab.com/Irfansaeedahmad)",
      "license": "CC-BY-4.0 (http://creativecommons.org/licenses/by/4.0/)",
      "source": "https://sketchfab.com/3d-models/tv-b72411a8065e4c5688fe27e98f1bf497",
      "title": "Tv"
    },
    "generator": "Sketchfab-12.66.0",
    "version": "2.0"
  },
  "bufferViews": [
    {
      "buffer": 0,
      "byteLength": 288228,
      "name": "floatBufferViews",
      "target": 34963
    },
    {
      "buffer": 0,
      "byteLength": 126232,
      "byteOffset": 288228,
      "byteStride": 8,
      "name": "floatBufferViews",
      "target": 34962
    },
    {
      "buffer": 0,
      "byteLength": 720024,
      "byteOffset": 414460,
      "byteStride": 12,
      "name": "floatBufferViews",
      "target": 34962
    }
  ],
  "buffers": [
    {
      "byteLength": 1134484,
      "uri": "scene.bin"
    }
  ],
  "materials": [
    {
      "doubleSided": true,
      "name": "Text__0",
      "pbrMetallicRoughness": {
        "metallicFactor": 0.0,
        "roughnessFactor": 0.6
      }
    },
    {
      "doubleSided": true,
      "name": "Material",
      "pbrMetallicRoughness": {
        "baseColorFactor": [
          0.0149694,
          0.0149694,
          0.0149694,
          1.0
        ],
        "metallicFactor": 0.0,
        "roughnessFactor": 0.9966527404017614
      }
    },
    {
      "doubleSided": true,
      "name": "Material.001",
      "pbrMetallicRoughness": {
        "baseColorFactor": [
          0.099093,
          0.099093,
          0.099093,
          1.0
        ],
        "metallicFactor": 0.0,
        "roughnessFactor": 0.9686797138800569
      }
    },
    {
      "doubleSided": true,
      "name": "Material.004",
      "pbrMetallicRoughness": {
        "baseColorFactor": [
          0.0,
          0.491021,
          0.0,
          1.0
        ],
        "metallicFactor": 0.0,
        "roughnessFactor": 0.8890032363089614
      }
    }
  ],
  "meshes": [
    {
      "name": "Cube_Material_0",
      "primitives": [
        {
          "attributes": {
            "NORMAL": 1,
            "POSITION": 0,
            "TEXCOORD_0": 2
          },
          "indices": 3,
          "material": 1,
          "mode": 4
        }
      ]
    },
    {
      "name": "Cube_Material.001_0",
      "primitives": [
        {
          "attributes": {
            "NORMAL": 5,
            "POSITION": 4,
            "TEXCOORD_0": 6
          },
          "indices": 7,
          "material": 2,
          "mode": 4
        }
      ]
    },
    {
      "name": "Cube_Material.004_0",
      "primitives": [
        {
          "attributes": {
            "NORMAL": 9,
            "POSITION": 8,
            "TEXCOORD_0": 10
          },
          "indices": 11,
          "material": 3,
          "mode": 4
        }
      ]
    },
    {
      "name": "Text__0",
      "primitives": [
        {
          "attributes": {
            "NORMAL": 13,
            "POSITION": 12
          },
          "indices": 14,
          "material": 0,
          "mode": 4
        }
      ]
    }
  ],
  "nodes": [
    {
      "children": [
        1
      ],
      "matrix": [
        1.0,
        0.0,
        0.0,
        0.0,
        0.0,
        2.220446049250313e-16,
        -1.0,
        0.0,
        0.0,
        1.0,
        2.220446049250313e-16,
        0.0,
        0.0,
        0.0,
        0.0,
        1.0
      ],
      "name": "Sketchfab_model"
    },
    {
      "children": [
        2
      ],
      "matrix": [
        1.0,
        0.0,
        0.0,
        0.0,
        0.0,
        0.0,
        1.0,
        0.0,
        0.0,
        -1.0,
        0.0,
        0.0,
        0.0,
        0.0,
        0.0,
        1.0
      ],
      "name": "41483ca30cef4dfcbb2674ffc74184fe.fbx"
    },
    {
      "children": [
        3,
        7,
        10,
        12
      ],
      "name": "RootNode"
    },
    {
      "children": [
        4,
        5,
        6
      ],
      "matrix": [
        139.36769104003906,
        0.0,
        0.0,
        0.0,
        0.0,
        -4.257352217847245e-07,
        -2.613144159316982,
        0.0,
        0.0,
        69.68384552001861,
        -1.135293945475701e-05,
        0.0,
        0.0,
        0.0,
        0.0,
        1.0
      ],
      "name": "Cube"
    },
    {
      "mesh": 0,
      "name": "Cube_Material_0"
    },
    {
      "mesh": 1,
      "name": "Cube_Material.001_0"
    },
    {
      "mesh": 2,
      "name": "Cube_Material.004_0"
    },
    {
      "children": [
        8
      ],
      "matrix": [
        -29.08647719990347,
        -5.518906457566863,
        -95.51711910171437,
        0.0,
        56.63930913109449,
        79.46723428563203,
        -21.83912397841966,
        0.0,
        77.11008775993375,
        -60.45246356562044,
        -19.98834696773717,
        0.0,
        407.6245422363281,
        590.38623046875,
        -100.54539489746094,
        1.0
      ],
      "name": "Light"
    },
    {
      "children": [
        9
      ],
      "matrix": [
        1.0,
        0.0,
        0.0,
        0.0,
        0.0,
        2.220446049250313e-16,
        1.0,
        0.0,
        0.0,
        -1.0,
        2.220446049250313e-16,
        0.0,
        0.0,
        0.0,
        0.0,
        1.0
      ],
      "name": "Object_8"
    },
    {
      "name": "Object_9"
    },
    {
      "children": [
        11
      ],
      "matrix": [
        62.504936477039784,
        -13.90243685589781,
        -76.81051468040685,
        0.0,
        8.775025552806351,
        99.02889603267631,
        -10.783166376207943,
        0.0,
        77.56372762154238,
        -0.0001309967854877525,
        63.1178909457059,
        0.0,
        -307.52264404296875,
        53.344696044921875,
        346.2061767578125,
        1.0
      ],
      "name": "Camera"
    },
    {
      "name": "Object_11"
    },
    {
      "children": [
        13
      ],
      "matrix": [
        2.8854455947875977,
        0.0,
        0.0,
        0.0,
        0.0,
        2.885445594787595,
        1.2612683277401813e-07,
        0.0,
        0.0,
        -1.2612683277401813e-07,
        2.885445594787595,
        0.0,
        -9.061768651008606e-05,
        -68.68048858642578,
        2.5903470516204834,
        1.0
      ],
      "name": "Text"
    },
    {
      "mesh": 3,
      "name": "Text__0"
    }
  ],
  "scene": 0,
  "scenes": [
    {
      "name": "Sketchfab_Scene",
      "nodes": [
        0
      ]
    }
  ]
}
